<svg id="Layer_1" data-name="Layer 1" xmlns="http://www.w3.org/2000/svg" viewBox="0 0 463.5459 79.40456"><path d="M510.39522,370.278l-2.64327,8.44769c-3.454-4.79987-7.76075-9.19921-14.83566-9.19921-4.324,0-9.014,1.45029-9.014,6.70991,0,13.07851,29.2848,10.46539,29.2848,29.72732,0,8.74269-8.54782,15.88543-20.90172,15.88543-4.98937,0-13.899-1.07884-18.83125-4.02035l2.38809-10.66027c2.67557,3.56491,7.88135,8.09345,14.54389,8.86651,8.67486,1.00778,14.72369-5.58585,9.19059-11.72081-6.51933-7.22887-26.12257-7.4216-26.12257-23.81308,0-6.824,4.51563-14.67739,19.65492-14.67739C497.13152,365.884,506.63651,368.03955,510.39522,370.278Z" transform="translate(-473.4541 -365.82373)"/><path d="M533.2339,397.97036v12.97408c0,6.796,11.091,8.44553,11.091-2.00264v-1.376c0-4.88169,0-11.26321-3.5703-13.324,4.39827-.07752,11.29983-3.23329,13.7073-5.64076v11.74449c.07537,7.40007.60187,16.062,3.57029,20.12543H545.77191c-1.30171,0-1.44706-.20888-1.44706-1.221v-1.16282c-4.39181,4.2443-21.22688,5.93685-21.22688-7.14274v-3.37865c0-4.88169,0-11.26321-3.57029-13.324,4.39826-.07752,11.29982-3.23329,13.70622-5.64076Zm17.09132,37.60436a15.702,15.702,0,0,0-9.04524,9.04417,15.705,15.705,0,0,0-9.04525-9.04417A15.70275,15.70275,0,0,0,541.28,426.5284,15.69978,15.69978,0,0,0,550.32522,435.57472Z" transform="translate(-473.4541 -365.82373)"/><path d="M598.89563,404.4714A16.67049,16.67049,0,0,1,575.004,419.52994c.23256,6.39121,1.00885,12.987,3.48738,16.37855H561.21375c2.864-3.91914,3.45186-12.117,3.55845-19.33513v-9.00649c0-4.88277,0-11.26429-3.57029-13.32507,4.39719-.07752,11.29875-3.23329,13.7073-5.64076v.86458a16.65907,16.65907,0,0,1,23.98642,15.00578Zm-20.12542-12.77166c-3.55092.95071-4.89785,7.441-3.00719,14.49436,1.88958,7.05445,6.30077,12.00075,9.85168,11.04895s4.89785-7.4399,3.00826-14.49543c-1.73131-6.458-5.616-11.24922-9.05278-11.16309A3.42488,3.42488,0,0,0,578.77021,391.69974Z" transform="translate(-473.4541 -365.82373)"/><path d="M618.89939,397.97036v2.37517c.07645,7.40007.60187,16.062,3.57137,20.12543H605.19317c2.55067-3.49062,3.29682-10.3728,3.50462-16.93628-.17981-3.89115-.86781-7.77045-3.50462-9.29288,4.39719-.07752,11.29875-3.23329,13.70622-5.64076Zm0-20.2051a6.69108,6.69108,0,0,1-6.6916,6.69269,6.90741,6.90741,0,0,1-6.69269-6.69269,6.69215,6.69215,0,1,1,13.38429,0Z" transform="translate(-473.4541 -365.82373)"/><path d="M659.42265,392.16379l-2.64327,8.44876c-1.77545-5.11857-4.61468-9.31011-9.90336-9.31011-4.21631,0-8.46707,4.52424-7.596,10.811,1.94988,14.07014,17.058,14.6451,21.43576,7.06091a16.71547,16.71547,0,0,1-32.756-4.703c0-9.23259,7.48943-16.37856,16.71556-16.71664C651.68665,387.49851,656.14306,389.58943,659.42265,392.16379Z" transform="translate(-473.4541 -365.82373)"/><path d="M679.17554,391.7245a13.42689,13.42689,0,0,1,7.71231-3.05994c9.49745-.6374,13.61255,4.1011,14.5245,11.5367,1.14882,6.92955,1.81852,17.0461,4.057,25.25691,2.48068,9.10016,6.14249,15.97157,14.06691,15.97157,9.38547,0,11.345-12.02443,11.43118-17.27436l10.74533,3.57891c0,6.5441-6.782,17.494-21.88042,17.494-12.27423,0-19.79381-6.206-23.97243-17.6189-2.54637-6.95539-3.14823-16.13307-4.54362-26.51556-.71815-5.59231-4.97214-8.73085-8.18605-7.49158a5.6932,5.6932,0,0,0-3.30866,3.17084,14.28835,14.28835,0,0,0-.6094,5.79042c.16581,6.84557.857,14.24456,3.53368,17.90745H665.46824c2.96843-4.06341,3.49493-12.72536,3.5703-20.12543V390.03841c0-4.88277,0-11.26429-3.5703-13.32507,4.39719-.07752,11.29983-3.23329,13.7073-5.64076Z" transform="translate(-473.4541 -365.82373)"/><path d="M738.77984,400.20126,739.99,410.84754c.58787,5.5277,2.08877,9.24443,3.50785,9.62342h-9.52437c-1.84975,0-2.836-.84843-3.30758-3.56814,0,.06245-3.25052,4.07849-10.389,4.07849-4.70512,0-8.73947-2.7111-9.07217-7.51527-.57925-8.3454,9.62881-10.558,14.714-12.87394,2.12108-.96687,2.513-2.32672,2.19752-4.70943-.36392-2.75309-2.443-3.72964-5.97992-3.355-5.61922.59649-8.47137,6.501-8.87943,7.96856l-2.32672-8.54028c2.07262-.88826,7.37423-3.11808,12.15041-3.35495C732.38862,388.13914,737.785,391.45318,738.77984,400.20126Zm-17.438,10.67c0,6.76805,8.92143,3.86961,8.27864-1.87343l-.68585-5.81734C725.80469,405.31552,721.34182,406.4342,721.34182,410.87122Z" transform="translate(-473.4541 -365.82373)"/><path d="M809.64089,373.89242l-3.96221,10.60967c-4.13663-3.22791-14.854-9.0517-25.02,1.67317a45.25842,45.25842,0,0,0-7.53465,11.63037c-.50174,1.04869-2.09308,4.26691-2.82954,5.939L762.93853,420.471c-3.61767,8.63718-11.148,14.18858-20.31708,11.99644l2.64435-8.44768c4.19907,2.14907,10.53861,3.004,13.52749-3.54876l-8.35509-18.982c-2.86614-5.88194-5.10134-11.51624-9.10446-12.88794h18.09695c-2.29335,1.84759-.183,7.83074,1.28556,11.07264l3.61336,8.20974,3.60905-8.20974a63.59068,63.59068,0,0,1,13.22172-19.74212c4.88815-4.80956,11.5916-8.17636,18.68912-8.21835A22.518,22.518,0,0,1,809.64089,373.89242Z" transform="translate(-473.4541 -365.82373)"/><path d="M811.24731,400.20126l1.21019,10.64628c.59,5.5277,2.08878,9.24443,3.50785,9.62342h-9.52222c-1.84975,0-2.836-.84843-3.30758-3.56814,0,.06245-3.25159,4.07849-10.39,4.07849-4.70512,0-8.73838-2.7111-9.07216-7.51527-.57925-8.3454,9.62989-10.558,14.714-12.87394,2.12107-.96687,2.513-2.32672,2.1986-4.70943-.36392-2.75309-2.44408-3.72964-5.97992-3.355-5.62031.59649-8.47137,6.501-8.88051,7.96856l-2.32565-8.54028c2.07155-.88826,7.37315-3.11808,12.14934-3.35495C804.85825,388.13914,810.2546,391.45318,811.24731,400.20126Zm-17.43587,10.67c0,6.76805,8.92143,3.86961,8.27757-1.87343l-.68477-5.81734C798.27323,405.31552,793.81144,406.4342,793.81144,410.87122Z" transform="translate(-473.4541 -365.82373)"/><path d="M906.29074,368.22366c4.27445,1.87882,7.40115,4.731,7.40115,10.57845,0,5.1078-4.26368,10.15639-11.67344,11.9986,6.03806,1.20589,15.77777,6.29969,16.36564,17.8913.95394,18.88293-17.25929,28.45252-37.32011,24.72718a35.43268,35.43268,0,0,1-8.1656-2.2352c-.02368-.00861-.04737-.01507-.0689-.02368l.00646-.00216a27.29008,27.29008,0,0,1-3.86531-1.97679,19.67822,19.67822,0,0,1-9.59328-15.32556,15.443,15.443,0,0,1,2.99535-10.698l-.01938-.01507a16.70761,16.70761,0,0,1,9.04416-6.18665v-17.1893c0-2.59912-.51035-9.52867-4.27875-9.52867-9.38655,0-12.31083,12.02551-12.397,17.27436l-10.74318-3.57676c0-6.54625,6.893-17.49508,19.94454-17.49508h24.76164c1.08961-.00538,3.37-.20349,6.12635-.18949A29.77458,29.77458,0,0,1,906.29074,368.22366Zm-22.34555,30.72c5.85933,3.791,8.93865,11.55285,3.77917,20.97816l-12.15579-4.05265c10.55583-10.55691-2.2352-20.02745-10.07348-10.56983a11.51554,11.51554,0,0,0-2.33426,8.22912,15.53155,15.53155,0,0,0,7.81459,12.42711,25.58169,25.58169,0,0,0,6.51826,2.80154c13.23248,3.50569,28.502-3.637,27.4189-19.55263-.57064-8.3637-5.87009-15.32663-16.22782-15.32663h-4.73957Zm0-8.86006h4.73957c8.01055-.00107,12.38836-2.4107,12.38836-10.21452,0-9.23582-7.85335-9.63312-12.38836-9.63312h-4.73957Z" transform="translate(-473.4541 -365.82373)"/><path d="M932.00848,410.49223a4.98937,4.98937,0,1,1-4.98937,4.98936A4.99022,4.99022,0,0,1,932.00848,410.49223Z" transform="translate(-473.4541 -365.82373)"/></svg>